<?xml version="1.0" encoding="UTF-8" standalone="no"?>
<!-- Generator: Adobe Illustrator 15.1.0, SVG Export Plug-In . SVG Version: 6.00 Build 0)  -->

<svg
   xmlns:dc="http://purl.org/dc/elements/1.1/"
   xmlns:cc="http://creativecommons.org/ns#"
   xmlns:rdf="http://www.w3.org/1999/02/22-rdf-syntax-ns#"
   xmlns:svg="http://www.w3.org/2000/svg"
   xmlns="http://www.w3.org/2000/svg"
   xmlns:xlink="http://www.w3.org/1999/xlink"
   xmlns:sodipodi="http://sodipodi.sourceforge.net/DTD/sodipodi-0.dtd"
   xmlns:inkscape="http://www.inkscape.org/namespaces/inkscape"
   version="1.1"
   id="Layer_1"
   x="0px"
   y="0px"
   width="399.81668"
   height="399.95175"
   viewBox="0 0 399.81666 399.95174"
   enable-background="new 0 0 595.28 841.89"
   xml:space="preserve"
   inkscape:version="0.48.4 r9939"
   sodipodi:docname="logo-for-simon.svg"
   inkscape:export-filename="C:\Users\Simon\Desktop\logo-for-simon.png"
   inkscape:export-xdpi="90"
   inkscape:export-ydpi="90"><metadata
   id="metadata3139"><rdf:RDF><cc:Work
       rdf:about=""><dc:format>image/svg+xml</dc:format><dc:type
         rdf:resource="http://purl.org/dc/dcmitype/StillImage" /><dc:title></dc:title></cc:Work></rdf:RDF></metadata><defs
   id="defs3137">
	
	
<radialGradient
   inkscape:collect="always"
   xlink:href="#SVGID_1_"
   id="radialGradient3213"
   gradientUnits="userSpaceOnUse"
   cx="207.96291"
   cy="420.48099"
   r="44.7966" /></defs><sodipodi:namedview
   pagecolor="#ffffff"
   bordercolor="#666666"
   borderopacity="1"
   objecttolerance="10"
   gridtolerance="10"
   guidetolerance="10"
   inkscape:pageopacity="0"
   inkscape:pageshadow="2"
   inkscape:window-width="1149"
   inkscape:window-height="860"
   id="namedview3135"
   showgrid="false"
   inkscape:zoom="0.39643468"
   inkscape:cx="-334.75534"
   inkscape:cy="100.90028"
   inkscape:window-x="0"
   inkscape:window-y="0"
   inkscape:window-maximized="0"
   inkscape:current-layer="Layer_1"
   units="px"
   fit-margin-top="0"
   fit-margin-left="0"
   fit-margin-right="0"
   fit-margin-bottom="0" />
<g
   id="g3066"
   transform="matrix(4.3223424,0,0,4.3223424,-699.00382,-1617.5016)">
		<radialGradient
   gradientUnits="userSpaceOnUse"
   r="44.7966"
   cy="420.48099"
   cx="207.96291"
   id="SVGID_1_">
			<stop
   id="stop3069"
   style="stop-color:#22815A"
   offset="0" />
			<stop
   id="stop3071"
   style="stop-color:#057043"
   offset="1" />
		</radialGradient>
		
			<circle
   sodipodi:ry="44.797001"
   sodipodi:rx="44.797001"
   sodipodi:cy="420.48099"
   sodipodi:cx="207.963"
   style="fill:url(#radialGradient3213);stroke:#fbad41;stroke-width:0.36570001;stroke-miterlimit:10"
   id="circle3073"
   r="44.797001"
   cy="420.48099"
   cx="207.963"
   stroke-miterlimit="10"
   d="m 252.76,420.48099 c 0,24.7407 -20.0563,44.797 -44.797,44.797 -24.7407,0 -44.797,-20.0563 -44.797,-44.797 0,-24.7407 20.0563,-44.797 44.797,-44.797 24.7407,0 44.797,20.0563 44.797,44.797 z" />
		<g
   id="g3075">
			<circle
   style="fill:none;stroke:#fbad41;stroke-width:2.92540002;stroke-miterlimit:10"
   sodipodi:ry="44.797001"
   sodipodi:rx="44.797001"
   sodipodi:cy="420.48099"
   sodipodi:cx="207.963"
   id="circle3077"
   r="44.797001"
   cy="420.48099"
   cx="207.963"
   stroke-miterlimit="10"
   d="m 252.76,420.48099 c 0,24.7407 -20.0563,44.797 -44.797,44.797 -24.7407,0 -44.797,-20.0563 -44.797,-44.797 0,-24.7407 20.0563,-44.797 44.797,-44.797 24.7407,0 44.797,20.0563 44.797,44.797 z" />
			<circle
   style="fill:none;stroke:#fbad41;stroke-width:2.92540002;stroke-miterlimit:10"
   sodipodi:ry="36.396999"
   sodipodi:rx="36.396999"
   sodipodi:cy="420.48099"
   sodipodi:cx="207.963"
   id="circle3079"
   r="36.396999"
   cy="420.48099"
   cx="207.963"
   stroke-miterlimit="10"
   d="m 244.36,420.48099 c 0,20.10151 -16.29549,36.397 -36.397,36.397 -20.10151,0 -36.397,-16.29549 -36.397,-36.397 0,-20.10151 16.29549,-36.397 36.397,-36.397 20.10151,0 36.397,16.29549 36.397,36.397 z" />
			<path
   style="fill:none;stroke:#fbad41;stroke-width:2.92540002;stroke-miterlimit:10"
   inkscape:connector-curvature="0"
   id="path3081"
   d="m 207.964,392.483 c 12.987,0 23.254,2.411 31.534,9.955"
   stroke-miterlimit="10" />
			<path
   style="fill:none;stroke:#fbad41;stroke-width:2.92540002;stroke-miterlimit:10"
   inkscape:connector-curvature="0"
   id="path3083"
   d="m 183.749,434.48 c -6.194,-9.488 -9.539,-20.454 -7.32,-32.042"
   stroke-miterlimit="10" />
			<path
   style="fill:none;stroke:#fbad41;stroke-width:2.92540002;stroke-miterlimit:10"
   inkscape:connector-curvature="0"
   id="path3085"
   d="m 232.178,434.48 c -5.238,10.966 -11.693,18.977 -24.214,22.398"
   stroke-miterlimit="10" />
			<path
   style="fill:none;stroke:#fbad41;stroke-width:2.92540002;stroke-miterlimit:10"
   inkscape:connector-curvature="0"
   id="path3087"
   d="m 176.426,438.835 c -6.804,-12.21 -10.848,-25.976 -7.271,-40.751"
   stroke-miterlimit="10" />
			<path
   style="fill:none;stroke:#fbad41;stroke-width:2.92540002;stroke-miterlimit:10"
   inkscape:connector-curvature="0"
   id="path3089"
   d="m 239.501,438.835 c -7.039,11.822 -15.905,21.311 -31.537,26.466"
   stroke-miterlimit="10" />
			<path
   style="fill:none;stroke:#fbad41;stroke-width:2.92540002;stroke-miterlimit:10"
   inkscape:connector-curvature="0"
   id="path3091"
   d="m 207.964,384.084 c 15.166,1.012 27.609,4.667 38.808,14"
   stroke-miterlimit="10" />
			<circle
   style="fill:none;stroke:#fbad41;stroke-width:2.92540002;stroke-miterlimit:10"
   sodipodi:ry="27.997999"
   sodipodi:rx="27.997999"
   sodipodi:cy="420.48099"
   sodipodi:cx="207.963"
   id="circle3093"
   r="27.997999"
   cy="420.48099"
   cx="207.963"
   stroke-miterlimit="10"
   d="m 235.961,420.48099 c 0,15.46287 -12.53513,27.998 -27.998,27.998 -15.46287,0 -27.998,-12.53513 -27.998,-27.998 0,-15.46287 12.53513,-27.998 27.998,-27.998 15.46287,0 27.998,12.53513 27.998,27.998 z" />
		</g>
	</g>
</svg>